<svg xmlns="http://www.w3.org/2000/svg" width="14" height="14" fill="none" viewBox="0 0 14 14"><g clip-path="url(#clip0_640_2070)"><path fill="#06A976" d="M6.999 13.998A6.999 6.999 0 1 0 6.999 0a6.999 6.999 0 0 0 0 13.998Z"/><path fill="#fff" fill-rule="evenodd" d="M5.27 8.012 9.92 4.32a.73.73 0 0 1 .905 1.142l-5.28 4.191-.051.041a.732.732 0 0 1-.066.042l-.029.018a.728.728 0 0 1-.965-.285l-.082-.137-1.356-2.357a.726.726 0 0 1 1.26-.724l1.016 1.76H5.27Z" clip-rule="evenodd"/></g><defs><clipPath id="clip0_640_2070"><path fill="#fff" d="M0 0h14v14H0z"/></clipPath></defs></svg>