<svg xmlns="http://www.w3.org/2000/svg" width="14" height="14" fill="none" viewBox="0 0 14 14"><g clip-path="url(#clip0_640_2068)"><path fill="#A2AABA" d="M7 0C3.15 0 0 3.15 0 7s3.15 7 7 7 7-3.15 7-7-3.15-7-7-7Zm2.59 8.61c.28.28.28.7 0 .98s-.7.28-.98 0L7 7.98 5.39 9.59c-.28.28-.7.28-.98 0a.677.677 0 0 1 0-.98L6.02 7 4.41 5.39a.677.677 0 0 1 0-.98c.28-.28.7-.28.98 0L7 6.02l1.61-1.61c.28-.28.7-.28.98 0s.28.7 0 .98L7.98 7l1.61 1.61Z"/></g><defs><clipPath id="clip0_640_2068"><path fill="#fff" d="M0 0h14v14H0z"/></clipPath></defs></svg>