<svg xmlns="http://www.w3.org/2000/svg" width="14" height="14" fill="none" viewBox="0 0 14 14"><rect width="14" height="14" fill="#EF6820" rx="7"/><path fill="#fff" d="M5.926 3.13a2.125 2.125 0 0 1 2.167 0 2.11 2.11 0 0 1 1.03 1.896v.096c.524 0 1.078.367 1.27 1.258l.32 2.496c.239 1.63-.708 2.292-1.978 2.292H5.28c-1.274 0-2.25-.458-1.987-2.292l.325-2.496c.05-.37.23-.716.508-.97.213-.188.488-.288.771-.288v-.096c-.033-.77.363-1.5 1.03-1.896Zm2.28 3.334a.368.368 0 0 0-.371.366c0 .2.167.367.37.367a.356.356 0 0 0 .259-.108.356.356 0 0 0 .108-.259.367.367 0 0 0-.367-.366Zm-2.417 0a.368.368 0 0 0-.371.366c0 .2.167.367.37.367a.367.367 0 0 0 0-.733ZM7 3.56a1.47 1.47 0 0 0-1.47 1.466v.092h2.945v-.092A1.47 1.47 0 0 0 7.001 3.56Z"/></svg>